<svg xmlns="http://www.w3.org/2000/svg" viewBox="0 0 48 48" role="img" aria-label="Google logo">
  <path fill="#EA4335" d="M24 9.5c3.54 0 5.94 1.54 7.31 2.83l5.32-5.2C33.64 3.36 29.3 1.5 24 1.5 14.82 1.5 7.17 6.91 3.71 14.44l6.39 4.97C11.63 14.34 17.25 9.5 24 9.5z"/>
  <path fill="#4285F4" d="M46.5 24c0-1.56-.14-3.05-.41-4.5H24v8.52h12.7c-.56 3.02-2.24 5.58-4.82 7.3l7.46 5.79C43.77 36.87 46.5 30.92 46.5 24z"/>
  <path fill="#FBBC05" d="M10.1 28.59a14.48 14.48 0 0 1-.76-4.59c0-1.6.28-3.15.76-4.59L3.7 14.44A22.44 22.44 0 0 0 1.5 24c0 3.58.85 6.97 2.35 9.99l6.25-5.4z"/>
  <path fill="#34A853" d="M24 46.5c6.3 0 11.58-2.07 15.44-5.59l-7.46-5.79c-2.06 1.39-4.71 2.2-7.98 2.2-6.75 0-12.37-4.84-14-11.33l-6.39 4.96C7.17 41.09 14.82 46.5 24 46.5z"/>
</svg>
